HIERARCHY
ROOT Pelvis
{
	OFFSET 0.32 0 0
	CHANNELS 6 Xposition Yposition Zposition Zrotation Xrotation Yrotation
	JOINT SpineShoulder
	{
		OFFSET 0 6.740009 0
		CHANNELS 3 Zrotation Xrotation Yrotation
		JOINT Neck
		{
			OFFSET 0 2.640004 0
			CHANNELS 3 Zrotation Xrotation Yrotation
			End Site
			{
				OFFSET 0 4.719998 0
			}
		}
		JOINT ShoulderLeft
		{
			OFFSET 3.340001 0.6799955 0
			CHANNELS 3 Zrotation Xrotation Yrotation
			JOINT ElbowLeft
			{
				OFFSET 5.307964 0 0
				CHANNELS 3 Zrotation Xrotation Yrotation
				End Site
				{
					OFFSET 4.786495 0 0
				}
			}
		}
		JOINT ShoulderRight
		{
			OFFSET -3.300001 0.6799955 0
			CHANNELS 3 Zrotation Xrotation Yrotation
			JOINT ElbowRight
			{
				OFFSET -5.307964 0 0
				CHANNELS 3 Zrotation Xrotation Yrotation
				End Site
				{
					OFFSET -4.786495 0 0
				}
			}
		}
	}
	JOINT HipLeft
	{
		OFFSET 2.560001 -1.599997 0
		CHANNELS 3 Zrotation Xrotation Yrotation
		JOINT KneeLeft
		{
			OFFSET 0 -8.508625 0
			CHANNELS 3 Zrotation Xrotation Yrotation
			End Site
			{
				OFFSET 0 -7.880188 0
			}
		}
	}
	JOINT HipRight
	{
		OFFSET -2.560001 -1.599997 0
		CHANNELS 3 Zrotation Xrotation Yrotation
		JOINT KneeRight
		{
			OFFSET 0 -8.508625 0
			CHANNELS 3 Zrotation Xrotation Yrotation
			End Site
			{
				OFFSET 0 -7.880188 0
			}
		}
	}
}
MOTION
Frames: 29
Frame Time: 0.03333334
0 0 0 0 0 0 0 0 0 0 0 0 0 0 0 0 0 0 0 0 0 0 0 0 0 0 0 0 0 0 0 0 0 0 0 0
0 0 0 -2.7585 15.26078 4.799644 -358.726 7.030529 357.3617 -359.4176 0.3572402 0.1177861 -66.11039 347.954 347.7135 -24.24339 48.63183 312.8237 -299.8607 338.3987 6.003839 -327.1766 38.9141 30.09531 -346.2438 296.1057 8.773661 -107.4118 80.62965 99.60434 -30.79693 302.6555 339.3356 -260.6127 71.03121 282.5281
0 0 0 -3.266965 14.76637 7.328844 -358.9982 8.51998 357.6534 -358.455 0.5733801 0.3214338 -66.27231 351.8486 347.3608 -354.4198 47.481 281.9211 -296.9753 333.5073 6.905031 -338.1884 48.43249 42.17994 -347.7232 289.7021 8.498716 -133.6102 77.24178 127.4633 -31.84665 297.4734 337.0739 -239.4581 69.13431 259.6869
0 0 0 -3.361822 14.66858 7.140841 -358.7597 7.841927 357.4812 -359.1292 0.5135446 0.1776682 -66.13407 352.1988 347.0052 -0.8028104 42.51635 294.2638 -296.3818 335.2178 7.4484 -337.06 45.40475 38.40539 -345.8205 292.741 9.44894 -141.1949 78.00593 134.2716 -27.42763 299.2276 340.6423 -242.2733 68.97636 262.1746
0 0 0 -2.904427 14.901 9.800157 -358.6627 8.388152 355.4377 -359.9116 359.145 0.01215349 -65.20934 352.4904 346.8741 -8.487749 40.24263 301.9236 -297.3214 334.0977 9.192314 -331.3238 44.19434 32.548 -342.2837 308.9464 10.06121 -58.59729 72.84382 43.73468 -30.47544 306.7934 341.4261 -259.4124 66.95715 284.8123
0 0 0 -2.903808 15.07808 8.898703 -358.3537 8.880817 355.5729 -359.7276 359.5121 0.05602933 -66.01129 349.9115 347.8584 -12.53116 35.00871 312.8054 -297.9488 334.0602 8.089959 -331.7419 38.6293 27.88036 -341.5084 306.9942 10.76135 -59.97026 71.74427 44.99784 -32.95491 304.4557 338.9966 -256.3687 66.93057 281.6005
0 0 0 -1.854357 14.95086 0.2433427 -359.1501 8.278163 357.5381 -358.8919 0.3301608 0.229855 -69.85207 339.7662 348.5667 -16.21551 39.49013 325.595 -299.4567 346.1421 9.349607 -334.8919 28.17413 33.47475 -350.1282 300.1898 5.51402 -115.5278 77.1704 107.2458 -28.71813 299.3219 339.6294 -242.5389 73.9427 261.0613
0 0 0 -2.570529 14.75973 1.795212 -358.598 8.9446 357.9008 -358.9586 0.2749253 0.2203259 -69.98682 341.8354 349.2208 -13.06349 34.90307 325.1526 -297.2766 342.2892 8.015686 -339.7637 31.54785 35.09368 -351.4099 307.3355 4.047885 -50.95243 76.63103 43.31371 -20.78888 303.8102 345.9041 -255.754 74.59112 273.1834
0 0 0 -1.885508 15.00804 356.501 -358.9486 9.983147 0.1087183 -356.7658 1.836984 0.6917222 -74.36939 334.2929 351.1534 -11.79333 35.28626 332.8115 -298.1408 345.6114 7.509354 -341.921 25.80901 36.75255 -344.1016 294.5527 9.677094 -117.6057 74.52443 108.091 -17.47187 317.1076 350.1643 -308.6888 73.28596 326.6163
0 0 0 -1.600419 14.25161 358.8593 -358.5371 8.678524 359.1497 -357.4271 4.007051 0.4628058 -73.34672 338.1848 352.3777 -6.885502 31.57411 329.4556 -298.2249 343.6916 4.889883 -342.6873 28.62776 36.29717 -338.0394 290.2852 15.4345 -135.0477 68.94958 123.8897 -27.00628 295.4995 339.7433 -218.569 73.07559 234.0062
0 0 0 -1.766522 14.42857 358.6008 -358.7323 7.229283 359.1386 -357.1844 4.868897 0.4738874 -70.98387 340.3561 350.1732 -6.771325 32.14769 327.6889 -298.8736 345.9728 5.861819 -342.8441 24.59688 33.69735 -338.9126 289.988 14.68635 -137.5728 71.87224 127.8304 -26.96613 293.439 338.9919 -211.6577 70.56753 226.4477
0 0 0 -2.07278 14.67386 358.1573 -357.6173 8.861969 358.6364 -0.1683113 2.545109 359.9867 -71.76453 337.5556 348.7835 -3.715367 31.90328 328.0154 -297.5023 345.7405 5.494921 -349.4156 21.08356 35.76272 -331.9653 291.4445 19.39635 -135.8581 67.21059 122.033 -23.77424 293.9693 341.2177 -217.5693 71.1569 231.994
0 0 0 -2.187642 15.10326 356.9028 -357.567 8.10012 359.5628 -357.9886 2.537572 0.3858889 -72.82703 336.4118 350.1557 -11.24611 31.37535 335.6532 -299.4331 348.3551 8.638701 -342.0075 19.43896 31.09682 -334.3232 297.0535 16.05005 -107.2547 72.49257 92.52588 -15.00436 317.5602 351.403 -318.8223 70.52202 334.9896
0 0 0 -1.431634 14.65192 357.4989 -358.0538 7.741078 358.765 -358.2095 4.621604 0.3102858 -71.40814 336.9468 350.4055 -6.127211 35.9919 325.6193 -299.4263 346.9516 4.873085 -344.717 25.01273 38.32441 -334.8821 289.3194 18.00896 -137.552 67.27023 125.6491 -25.51848 292.4895 339.8093 -207.0827 71.07131 220.4143
0 0 0 -1.780541 15.20484 355.3838 -357.9394 7.836183 359.6328 -357.5496 3.725971 0.4564623 -71.86052 335.0796 348.7873 -11.66134 39.0326 329.0905 -299.7467 351.265 9.617075 -343.2694 19.61039 35.65515 -338.9567 296.6779 12.88594 -106.6414 72.5325 93.68768 -13.87323 317.6324 351.9807 -327.8286 71.10555 341.8076
0 0 0 -1.482326 15.12707 356.9888 -358.5367 5.901145 358.8199 -359.7132 5.348468 0.101907 -71.56236 338.3606 349.2932 -6.197637 38.59724 323.5752 -299.1897 349.855 6.174046 -343.9419 23.27708 37.44015 -332.9069 289.8246 19.32896 -139.876 66.63306 127.1395 -23.28568 293.3292 341.5384 -214.8243 71.60429 228.3829
0 0 0 -1.508075 14.97079 357.6791 -358.0399 6.431572 358.7251 -358.2998 5.101068 0.2776371 -71.81482 338.3337 350.2166 -12.40574 34.40888 331.9564 -299.373 348.424 5.993474 -342.8627 23.28138 35.10682 -334.6338 289.4019 18.18441 -140.7176 66.60996 128.7144 -24.66457 292.3459 340.3528 -210.5286 69.9054 224.1314
0 0 0 -1.724266 14.67445 357.8469 -357.9283 7.096358 358.6812 -357.7719 4.723795 0.369659 -71.85236 338.4293 349.7462 -12.22171 32.95229 333.2822 -299.5037 347.9024 5.999065 -342.8627 22.3462 33.98193 -333.9059 289.6118 18.56013 -136.7199 67.26995 124.4132 -25.05778 293.1572 340.2113 -212.3104 70.13983 226.5735
0 0 0 -2.069513 15.342 358.2324 -357.7478 7.291795 358.5331 -357.9228 5.312705 0.3654584 -73.05254 337.6029 350.105 -7.043544 32.7511 330.5871 -299.7635 346.1435 4.871325 -342.8081 23.96996 35.31382 -327.777 289.4358 23.30758 -135.4401 67.61063 121.5827 -29.80456 290.6798 335.5701 -211.2181 70.80994 225.5166
0 0 0 -2.151814 14.80558 357.2615 -357.2094 7.287014 358.4458 -358.4777 3.960952 0.270552 -71.45026 336.3171 349.9244 -13.17526 34.99782 333.395 -299.9491 348.7964 5.477223 -342.5641 21.10723 34.47792 -329.1738 289.9209 21.78033 -134.6741 67.30359 120.9774 -27.19217 290.2603 337.3221 -210.5683 70.95086 223.8577
0 0 0 -2.325633 14.50909 357.4466 -357.0946 7.281966 358.4902 -358.7485 3.822999 0.2233182 -73.91874 337.305 349.6992 -6.665308 31.48071 334.0376 -297.5109 348.6565 4.785603 -348.7417 17.91207 33.48024 -328.6407 291.5028 21.60938 -135.2737 66.78522 120.4589 -26.34211 291.8446 338.4265 -211.3803 71.5146 225.2003
0 0 0 -2.24609 14.58284 358.0737 -357.2566 7.143374 358.67 -358.304 5.466559 0.2732659 -73.3233 338.3939 350.2473 -6.653659 31.94173 331.3782 -297.8491 347.159 4.533391 -348.0876 21.34208 35.1825 -329.1902 291.2966 21.41796 -133.7488 67.98273 119.3895 -24.41177 293.277 340.4427 -211.3747 71.7177 225.1702
0 0 0 -2.240247 14.88128 358.1764 -357.0417 6.841789 358.6331 -358.562 5.620227 0.2240546 -73.54089 338.6233 350.0539 -6.697366 32.33324 330.8134 -297.5506 347.1628 4.613482 -345.4622 23.6903 35.35335 -328.2539 290.3655 22.47297 -137.3861 66.95516 123.1477 -27.93975 290.8931 337.0266 -209.982 70.81747 223.7939
0 0 0 -1.553232 16.19325 0.1412188 -358.5073 6.654785 358.0147 -357.496 3.910527 0.4534407 -72.39471 340.3432 349.5968 -11.91026 32.29134 330.827 -298.9641 343.4691 4.865781 -338.5553 27.80922 32.47256 -332.9763 287.6703 20.47587 -141.831 68.84374 130.5451 -34.68382 290.44 332.2225 -216.1581 70.56554 231.7071
0 0 0 -1.659169 16.50158 357.7745 -357.8277 9.208209 358.6825 -356.0101 1.044823 0.8799018 -73.66833 335.7993 347.4663 -14.68766 32.895 335.8578 -300.2743 345.7784 9.227898 -337.8334 23.72433 32.99094 -336.6939 296.3251 15.11793 -106.9339 74.15839 93.46387 -17.14246 316.238 350.1957 -310.9763 71.23341 328.7153
0 0 0 -1.523933 15.16825 0.2029181 -358.0149 7.441186 357.6957 -356.0187 2.253987 0.7296414 -72.48106 340.5645 349.005 -13.26588 29.48624 334.9635 -299.3813 344.1409 5.029782 -338.1079 24.6902 29.45633 -333.4856 288.6439 19.7395 -138.6143 69.17626 126.9385 -32.92965 292.8175 334.6093 -217.1478 70.50989 233.6416
0 0 0 -1.717318 16.36062 357.3501 -358.0411 9.614713 359.6314 -356.0464 0.6032984 0.8922887 -73.39711 335.5343 348.7475 -16.19362 31.50941 337.5397 -299.521 346.2381 11.74281 -336.7943 26.78481 34.74242 -343.7099 297.0976 9.913098 -96.82336 74.88784 85.93345 -17.02017 320.432 350.935 -319.701 66.9578 338.184
0 0 0 -1.788779 16.26825 356.3022 -358.1802 7.897678 359.7746 -355.832 2.673187 0.8211388 -73.52238 335.7696 348.8599 -18.59372 35.32715 336.8606 -299.1662 349.6182 11.59542 -335.846 27.87279 37.02671 -342.3659 295.934 10.80285 -104.0461 73.81222 92.82148 -16.97268 321.6719 351.0625 -320.8606 66.6076 339.6706
0 0 0 -1.200328 16.60198 355.902 -359.0946 8.286844 359.6708 -357.3383 1.148778 0.5755489 -74.1913 335.8346 346.8664 -12.80839 39.65822 329.0591 -298.3648 349.5606 11.69645 -338.9188 29.26171 40.92072 -343.4472 296.3884 10.26772 -105.0051 76.21586 94.6983 -15.73643 320.2549 351.5439 -314.2863 69.12754 332.6876
